<svg width="150" height="85" viewBox="0 0 150 85" fill="none" xmlns="http://www.w3.org/2000/svg">
<g clip-path="url(#clip0_2_9)">
<rect width="150" height="85" rx="16" fill="#FF0000"/>
<path d="M54.875 24.875V59H47.8438L34.1328 36.125V59H27.1016V24.875H34.1328L47.8672 47.7734V24.875H54.875ZM83.8906 53.5156V59H65.7266V53.5156H83.8906ZM68.0234 24.875V59H60.9922V24.875H68.0234ZM81.5234 38.7734V44.1172H65.7266V38.7734H81.5234ZM83.8672 24.875V30.3828H65.7266V24.875H83.8672ZM96.2188 53.5859L103.016 24.875H106.812L107.68 29.6562L100.438 59H96.3594L96.2188 53.5859ZM92.7266 24.875L98.3516 53.5859L97.8828 59H93.3359L85.7656 24.875H92.7266ZM113.656 53.4688L119.211 24.875H126.172L118.625 59H114.078L113.656 53.4688ZM108.945 24.875L115.789 53.7031L115.602 59H111.523L104.234 29.6328L105.172 24.875H108.945Z" fill="white"/>
</g>
<defs>
<clipPath id="clip0_2_9">
<rect width="150" height="85" fill="white"/>
</clipPath>
</defs>
</svg>
